<svg width="50" height="50" viewBox="0 0 50 50" fill="none" xmlns="http://www.w3.org/2000/svg">
<path d="M19.7915 34.3751L34.3748 25.0001L19.7915 15.6251V34.3751ZM24.9998 45.8334C22.1179 45.8334 19.4096 45.2862 16.8748 44.1918C14.3401 43.0973 12.1353 41.6133 10.2603 39.7397C8.38525 37.8647 6.90123 35.6598 5.80817 33.1251C4.71512 30.5904 4.16789 27.882 4.1665 25.0001C4.1665 22.1181 4.71373 19.4098 5.80817 16.8751C6.90262 14.3404 8.38664 12.1355 10.2603 10.2605C12.1353 8.3855 14.3401 6.90147 16.8748 5.80842C19.4096 4.71536 22.1179 4.16814 24.9998 4.16675C27.8818 4.16675 30.5901 4.71397 33.1248 5.80842C35.6596 6.90286 37.8644 8.38689 39.7394 10.2605C41.6144 12.1355 43.0991 14.3404 44.1936 16.8751C45.288 19.4098 45.8346 22.1181 45.8332 25.0001C45.8332 27.882 45.286 30.5904 44.1915 33.1251C43.0971 35.6598 41.613 37.8647 39.7394 39.7397C37.8644 41.6147 35.6596 43.0994 33.1248 44.1938C30.5901 45.2883 27.8818 45.8348 24.9998 45.8334Z" fill="white"/>
<path d="M34.5 25L19.5 15.5V34.5L34.5 25Z" fill="#3E3E3E"/>
</svg>
