<svg width="64" height="64" viewBox="0 0 64 64" fill="none" xmlns="http://www.w3.org/2000/svg">
<path d="M4.95117 24.6897C4.95117 24.6897 16.8809 21.4932 23.6436 17.5888C30.4062 13.6844 39.1394 4.95113 39.1394 4.95113C39.1394 4.95113 42.3359 16.8809 46.2403 23.6435C50.1447 30.4062 58.8779 39.1393 58.8779 39.1393C58.8779 39.1393 46.9482 42.3358 40.1855 46.2403C33.4229 50.1447 24.6897 58.8779 24.6897 58.8779C24.6897 58.8779 21.4932 46.9481 17.5888 40.1855C13.6844 33.4228 4.95117 24.6897 4.95117 24.6897Z" fill="#ECECEC"/>
<path d="M18.1939 6.8564C18.1939 6.8564 28.598 14.1207 36.1407 16.1418C43.6835 18.1628 56.3258 17.0738 56.3258 17.0738C56.3258 17.0738 49.2266 27.5222 47.2055 35.0649C45.1844 42.6077 46.1084 55.2058 46.1084 55.2058C46.1084 55.2058 35.4125 49.0305 27.8698 47.0094C20.327 44.9883 7.97642 44.9884 7.97642 44.9884C7.97642 44.9884 15.2407 34.5843 17.2618 27.0415C19.2829 19.4988 18.1939 6.8564 18.1939 6.8564Z" fill="#ECECEC"/>
</svg>
