<svg width="36" height="36" viewBox="0 0 36 36" fill="none" xmlns="http://www.w3.org/2000/svg">
<path d="M24.0001 12.6L10.6876 25.95C10.3876 26.25 10.0311 26.4 9.6181 26.4C9.2051 26.4 8.8491 26.25 8.5501 25.95C8.2501 25.65 8.1001 25.2935 8.1001 24.8805C8.1001 24.4675 8.2501 24.1115 8.5501 23.8125L21.9001 10.5H10.5001C10.0751 10.5 9.7186 10.356 9.4306 10.068C9.1426 9.78001 8.9991 9.42401 9.0001 9.00001C9.0001 8.57501 9.1441 8.21851 9.4321 7.93051C9.7201 7.64251 10.0761 7.49901 10.5001 7.50001H25.5001C25.9251 7.50001 26.2816 7.64401 26.5696 7.93201C26.8576 8.22001 27.0011 8.57601 27.0001 9.00001V24C27.0001 24.425 26.8561 24.7815 26.5681 25.0695C26.2801 25.3575 25.9241 25.501 25.5001 25.5C25.0751 25.5 24.7186 25.356 24.4306 25.068C24.1426 24.78 23.9991 24.424 24.0001 24V12.6Z" fill="#635E59"/>
</svg>
