<svg width="64" height="64" viewBox="0 0 64 64" fill="none" xmlns="http://www.w3.org/2000/svg">
<path d="M6.23818 32.8922C5.42286 32.5215 5.42286 31.3076 6.23818 30.9369C9.97276 29.2388 17.4625 25.5375 21.5 21.5C25.5375 17.4625 29.2388 9.97276 30.9369 6.23818C31.3076 5.42286 32.5215 5.42286 32.8922 6.23818C34.5903 9.97276 38.2916 17.4625 42.3291 21.5C46.3666 25.5375 53.8563 29.2388 57.5909 30.9369C58.4062 31.3076 58.4062 32.5215 57.5909 32.8922C53.8563 34.5903 46.3666 38.2916 42.3291 42.3291C38.2916 46.3666 34.5903 53.8563 32.8922 57.5909C32.5215 58.4062 31.3076 58.4062 30.9369 57.5909C29.2388 53.8563 25.5375 46.3666 21.5 42.3291C17.4625 38.2916 9.97276 34.5903 6.23818 32.8922Z" fill="#635E59"/>
<path d="M4 29C4 29 14.5834 24.4166 19.5 19.5C24.4166 14.5834 29 4 29 4" stroke="#635E59"/>
<path d="M60 29C60 29 49.4166 24.4166 44.5 19.5C39.5834 14.5834 35 4 35 4" stroke="#635E59"/>
<path d="M60 35C60 35 49.4166 39.5834 44.5 44.5C39.5834 49.4166 35 60 35 60" stroke="#635E59"/>
<path d="M4 35C4 35 14.5834 39.5834 19.5 44.5C24.4166 49.4166 29 60 29 60" stroke="#635E59"/>
</svg>
