<svg width="1201" height="1567" viewBox="0 0 1201 1567" fill="none" xmlns="http://www.w3.org/2000/svg">
<path opacity="0.04" fill-rule="evenodd" clip-rule="evenodd" d="M782.494 1567C672.529 1567 569.94 1547.3 474.727 1507.91C379.513 1468.51 296.369 1413.49 225.294 1342.85C154.219 1272.21 98.5661 1189.34 58.335 1094.25C19.445 997.799 0 893.876 0 782.481C0 669.728 19.445 565.805 58.335 470.711C97.2251 375.618 152.208 292.751 223.282 222.111C294.357 151.47 377.502 97.1309 472.715 59.0936C567.929 19.6979 671.188 0 782.494 0C893.8 0 997.06 19.6979 1092.27 59.0936C1187.49 98.4893 1270.63 153.508 1341.71 224.148C1412.78 293.43 1467.76 375.618 1506.65 470.711C1546.88 565.805 1567 669.728 1567 782.481C1567 893.876 1546.88 997.799 1506.65 1094.25C1466.42 1189.34 1410.77 1272.21 1339.69 1342.85C1268.62 1413.49 1185.48 1468.51 1090.26 1507.91C996.389 1547.3 893.8 1567 782.494 1567ZM884.245 1270.71C884.245 1288.8 900.655 1302.53 918.193 1298.09C941.432 1292.2 963.921 1284.7 985.661 1275.61C1047.35 1248.44 1100.99 1211.08 1146.59 1163.53C1193.52 1115.99 1229.06 1059.61 1253.2 994.403C1259.17 979.113 1264.45 963.524 1269.02 947.636C1274.14 929.851 1260.33 912.727 1241.83 912.727H913.245C897.228 912.727 884.245 925.711 884.245 941.727L884.245 1270.71ZM674.708 1268.68C674.708 1286.97 657.957 1300.74 640.317 1295.91C620.141 1290.38 600.482 1283.62 581.339 1275.61C519.651 1248.44 465.339 1211.08 418.403 1163.53C372.808 1115.99 337.27 1059.61 311.791 994.403C305.816 979.113 300.542 963.524 295.968 947.636C290.848 929.851 304.654 912.727 323.162 912.727H645.708C661.724 912.727 674.708 925.711 674.708 941.727L674.708 1268.68ZM674.708 671.465C674.708 687.482 661.724 700.465 645.708 700.465H311.891C294.368 700.465 280.785 685.025 284.087 667.816C290.441 634.694 299.676 602.955 311.791 572.597C337.27 507.39 372.808 451.013 418.403 403.467C465.339 354.562 519.651 317.204 581.339 291.393C600.482 283.383 620.141 276.616 640.317 271.092C657.957 266.262 674.708 280.031 674.708 298.321V671.465ZM884.245 671.466C884.245 687.482 897.228 700.465 913.245 700.465H1253.1C1270.62 700.465 1284.2 685.025 1280.9 667.816C1274.55 634.694 1265.31 602.955 1253.2 572.597C1229.06 507.39 1193.52 451.013 1146.59 403.467C1100.99 354.562 1047.35 317.204 985.661 291.393C963.921 282.296 941.432 274.803 918.193 268.912C900.655 264.467 884.245 278.197 884.245 296.288V671.466Z" fill="#635E59"/>
</svg>
