<svg width="821" height="1567" viewBox="0 0 821 1567" fill="none" xmlns="http://www.w3.org/2000/svg">
<path opacity="0.04" fill-rule="evenodd" clip-rule="evenodd" d="M36.4943 1567C-73.4707 1567 -176.06 1547.3 -271.273 1507.91C-366.487 1468.51 -449.631 1413.49 -520.706 1342.85C-591.781 1272.21 -647.434 1189.34 -687.665 1094.25C-726.555 997.799 -746 893.876 -746 782.481C-746 669.728 -726.555 565.805 -687.665 470.711C-648.775 375.618 -593.792 292.751 -522.718 222.111C-451.643 151.47 -368.498 97.1309 -273.285 59.0936C-178.071 19.6979 -74.8117 0 36.4943 0C147.8 0 251.06 19.6979 346.274 59.0936C441.487 98.4893 524.631 153.508 595.706 224.148C666.781 293.43 721.763 375.618 760.653 470.711C800.885 565.805 821 669.728 821 782.481C821 893.876 800.885 997.799 760.653 1094.25C720.422 1189.34 664.769 1272.21 593.694 1342.85C522.62 1413.49 439.475 1468.51 344.262 1507.91C250.389 1547.3 147.8 1567 36.4943 1567ZM138.245 1270.71C138.245 1288.8 154.655 1302.53 172.193 1298.09C195.432 1292.2 217.921 1284.7 239.661 1275.61C301.349 1248.44 354.99 1211.08 400.585 1163.53C447.522 1115.99 483.059 1059.61 507.198 994.403C513.172 979.113 518.447 963.524 523.02 947.636C528.14 929.851 514.334 912.727 495.826 912.727H167.245C151.228 912.727 138.245 925.711 138.245 941.727L138.245 1270.71ZM-71.292 1268.68C-71.292 1286.97 -88.0428 1300.74 -105.683 1295.91C-125.859 1290.38 -145.518 1283.62 -164.661 1275.61C-226.349 1248.44 -280.661 1211.08 -327.597 1163.53C-373.192 1115.99 -408.73 1059.61 -434.209 994.403C-440.184 979.113 -445.458 963.524 -450.032 947.636C-455.152 929.851 -441.346 912.727 -422.838 912.727H-100.292C-84.2758 912.727 -71.2921 925.711 -71.2921 941.727L-71.292 1268.68ZM-71.2921 671.465C-71.2921 687.482 -84.2758 700.465 -100.292 700.465H-434.109C-451.632 700.465 -465.215 685.025 -461.913 667.816C-455.559 634.694 -446.324 602.955 -434.209 572.597C-408.73 507.39 -373.192 451.013 -327.597 403.467C-280.661 354.562 -226.349 317.204 -164.661 291.393C-145.518 283.383 -125.859 276.616 -105.683 271.092C-88.0428 266.262 -71.2921 280.031 -71.2921 298.321V671.465ZM138.245 671.466C138.245 687.482 151.228 700.465 167.245 700.465H507.098C524.62 700.465 538.203 685.025 534.902 667.816C528.547 634.694 519.312 602.955 507.198 572.597C483.059 507.39 447.522 451.013 400.585 403.467C354.99 354.562 301.349 317.204 239.661 291.393C217.921 282.296 195.432 274.803 172.193 268.912C154.655 264.467 138.245 278.197 138.245 296.288V671.466Z" fill="#635E59"/>
</svg>
