<svg width="56" height="56" viewBox="0 0 56 56" fill="none" xmlns="http://www.w3.org/2000/svg">
<path d="M32.291 43.9113C32.7072 43.9059 33.1327 43.8033 33.5674 43.6035L43.4258 39.0736C44.1674 38.7328 44.7148 38.1715 45.0679 37.3898C45.4211 36.6081 45.4784 35.8229 45.2399 35.0343L43.0614 27.7657C42.8592 27.0533 42.4757 26.4707 41.9108 26.0179C41.3459 25.5651 40.692 25.3391 39.949 25.3398L31.7524 25.2966C31.5018 25.2878 31.2431 25.3138 30.9761 25.3745C30.7092 25.4353 30.4606 25.5185 30.2305 25.6243L29.3098 26.0473L25.0795 16.8411C24.7872 16.2023 24.3141 15.7618 23.6602 15.5197C23.0063 15.2775 22.3597 15.3033 21.7204 15.5971C21.0816 15.8894 20.6412 16.3625 20.399 17.0164C20.1568 17.6703 20.1826 18.3169 20.4764 18.9562L28.0557 35.4507L22.1567 36.7676C21.8529 36.8453 21.5703 37.0216 21.3089 37.2966C21.0474 37.5715 20.885 37.9095 20.8214 38.3104C20.7813 38.7624 20.8809 39.1812 21.12 39.5669C21.3592 39.9526 21.684 40.2214 22.0946 40.3735L30.9963 43.67C31.4432 43.8363 31.8747 43.9168 32.291 43.9113Z" fill="#3E3E3E"/>
</svg>
