<svg width="30" height="210" viewBox="0 0 30 210" fill="none" xmlns="http://www.w3.org/2000/svg">
<path d="M15.0001 0.503418L16.5 57.9676L15 160.187L13.5 57.9676L15.0001 0.503418Z" fill="#949494"/>
<path d="M0.341797 194.845C0.341797 194.845 5.95835 191.603 8.85783 188.703C11.7573 185.804 15 180.187 15 180.187C15 180.187 18.2427 185.804 21.1422 188.703C24.0416 191.603 29.6582 194.845 29.6582 194.845C29.6582 194.845 24.0416 198.088 21.1422 200.987C18.2427 203.887 15 209.503 15 209.503C15 209.503 11.7573 203.887 8.85783 200.987C5.95835 198.088 0.341797 194.845 0.341797 194.845Z" fill="#949494"/>
</svg>
