<svg width="30" height="304" viewBox="0 0 30 304" fill="none" xmlns="http://www.w3.org/2000/svg">
<path d="M15.3419 0L16.8418 42.3499L15.3418 117.684L13.8418 42.3499L15.3419 0Z" fill="#ECECEC"/>
<path d="M0.683594 152.342C0.683594 152.342 6.30014 149.099 9.19963 146.2C12.0991 143.3 15.3418 137.684 15.3418 137.684C15.3418 137.684 18.5845 143.3 21.484 146.2C24.3834 149.099 30 152.342 30 152.342C30 152.342 24.3834 155.584 21.484 158.484C18.5845 161.383 15.3418 167 15.3418 167C15.3418 167 12.0991 161.383 9.19963 158.484C6.30014 155.584 0.683594 152.342 0.683594 152.342Z" fill="#949494"/>
<path d="M15.3419 187L16.8418 229.104L15.3418 304L13.8418 229.104L15.3419 187Z" fill="#ECECEC"/>
</svg>
