<svg width="30" height="320" viewBox="0 0 30 320" fill="none" xmlns="http://www.w3.org/2000/svg">
<path d="M15.3419 0.841797L16.8418 19.5546L15.3418 52.8418L13.8418 19.5546L15.3419 0.841797Z" fill="#ECECEC"/>
<path d="M0.683594 87.5C0.683594 87.5 6.30014 84.2573 9.19963 81.3578C12.0991 78.4584 15.3418 72.8418 15.3418 72.8418C15.3418 72.8418 18.5845 78.4584 21.484 81.3578C24.3834 84.2573 30 87.5 30 87.5C30 87.5 24.3834 90.7427 21.484 93.6422C18.5845 96.5416 15.3418 102.158 15.3418 102.158C15.3418 102.158 12.0991 96.5416 9.19963 93.6422C6.30014 90.7427 0.683594 87.5 0.683594 87.5Z" fill="#949494"/>
<path d="M15.3419 122.158L16.8418 193.051L15.3418 319.158L13.8418 193.051L15.3419 122.158Z" fill="#ECECEC"/>
</svg>
