<svg width="30" height="304" viewBox="0 0 30 304" fill="none" xmlns="http://www.w3.org/2000/svg">
<path d="M0 14.6582C0 14.6582 5.61655 11.4155 8.51603 8.51604C11.4155 5.61656 14.6582 6.90328e-06 14.6582 6.90328e-06C14.6582 6.90328e-06 17.9009 5.61656 20.8004 8.51604C23.6998 11.4155 29.3164 14.6582 29.3164 14.6582C29.3164 14.6582 23.6998 17.9009 20.8004 20.8004C17.9009 23.6998 14.6582 29.3164 14.6582 29.3164C14.6582 29.3164 11.4155 23.6998 8.51603 20.8004C5.61655 17.9009 0 14.6582 0 14.6582Z" fill="#949494"/>
<path d="M14.5001 49.3164L16 140.949L14.5 303.949L13 140.949L14.5001 49.3164Z" fill="#ECECEC"/>
</svg>
