<svg width="30" height="305" viewBox="0 0 30 305" fill="none" xmlns="http://www.w3.org/2000/svg">
<path d="M15.3419 0.00164795L16.8418 63.9433L15.3418 177.685L13.8418 63.9433L15.3419 0.00164795Z" fill="#ECECEC"/>
<path d="M0.683594 212.343C0.683594 212.343 6.30014 209.101 9.19963 206.201C12.0991 203.302 15.3418 197.685 15.3418 197.685C15.3418 197.685 18.5845 203.302 21.484 206.201C24.3834 209.101 30 212.343 30 212.343C30 212.343 24.3834 215.586 21.484 218.486C18.5845 221.385 15.3418 227.002 15.3418 227.002C15.3418 227.002 12.0991 221.385 9.19963 218.486C6.30014 215.586 0.683594 212.343 0.683594 212.343Z" fill="#949494"/>
<path d="M15.3419 247.002L16.8418 267.514L15.3418 304.002L13.8418 267.514L15.3419 247.002Z" fill="#ECECEC"/>
</svg>
