<svg width="35" height="24" viewBox="0 0 35 24" fill="none" xmlns="http://www.w3.org/2000/svg">
<path d="M30.1596 13.4097L1.50165 13.3884C1.10594 13.3884 0.77189 13.2522 0.499508 12.9799C0.227125 12.7075 0.0912638 12.3738 0.0919236 11.9787C0.0919239 11.583 0.228114 11.2489 0.500497 10.9766C0.77288 10.7042 1.1066 10.5683 1.50165 10.569L21.3673 10.6273L30.1596 10.6397L22.641 3.12108C22.3607 2.84078 22.2205 2.51068 22.2205 2.1308C22.2205 1.75091 22.3607 1.42148 22.641 1.14251C22.9213 0.862209 23.2514 0.722059 23.6313 0.722059C24.0111 0.722059 24.3406 0.862212 24.6196 1.14251L34.5124 11.0354C34.7927 11.3157 34.9329 11.6457 34.9329 12.0256C34.9328 12.4055 34.7927 12.7349 34.5124 13.0139L24.6196 22.9068C24.3393 23.1871 24.0092 23.3272 23.6293 23.3272C23.2494 23.3272 22.92 23.1871 22.641 22.9068C22.3607 22.6265 22.2206 22.2964 22.2206 21.9165C22.2206 21.5366 22.3607 21.2072 22.641 20.9282L30.1596 13.4097Z" fill="#3E3E3E"/>
</svg>
